<svg width="1763" height="496" fill="none" xmlns="http://www.w3.org/2000/svg"><path d="M1639.8 187.916a5.964 5.964 0 0 0 0 11.925c3.3 0 5.97-2.669 5.97-5.961a5.966 5.966 0 0 0-5.97-5.964Zm0 .667c2.92 0 5.3 2.376 5.3 5.297a5.305 5.305 0 0 1-5.3 5.295 5.297 5.297 0 0 1 0-10.592" fill="#0072BF"/><path d="M1641.16 192.452c0-.149-.03-.297-.07-.438a1.078 1.078 0 0 0-.23-.379c-.1-.109-.23-.197-.4-.261a1.508 1.508 0 0 0-.58-.099h-1.73v2.379h1.67c.46 0 .8-.112 1.01-.335.22-.225.33-.513.33-.867Zm-.36 1.614c.26.086.45.21.57.372.11.164.2.364.27.598l.55 1.979c.01.032.01.063 0 .093-.01.031-.04.046-.1.046h-.52a.292.292 0 0 1-.08-.012c-.03-.011-.05-.039-.06-.09l-.51-1.81c-.05-.194-.12-.35-.21-.472a1.001 1.001 0 0 0-.66-.439c-.14-.028-.29-.04-.44-.04h-1.47v2.743c0 .049-.01.081-.03.097-.02.016-.05.023-.1.023h-.48c-.05 0-.08-.007-.1-.023-.02-.016-.03-.048-.03-.097v-5.992c0-.144.03-.251.1-.328.06-.072.17-.111.34-.111h2.12c.3 0 .57.044.8.135.24.092.44.216.61.378.17.163.3.354.39.575.09.22.13.461.13.724 0 .372-.09.705-.28.999-.18.29-.45.501-.81.622v.03Z" fill="#0072BF"/><path d="M67.075 228.192h36.586c9.756 0 17.999-1.693 24.73-5.081 6.728-3.387 11.833-7.995 15.312-13.822 3.477-5.826 5.217-12.306 5.217-19.445 0-10.299-3.885-18.903-11.653-25.813-7.771-6.911-18.971-10.367-33.606-10.367H67.075v74.528ZM0 281.311V3.796h189.572v54.472H67.075v43.363h36.586c22.583 0 42.254 3.658 59.012 10.976 16.756 7.316 29.722 17.614 38.892 30.894 9.167 13.28 13.754 28.911 13.754 46.886 0 17.977-4.587 33.786-13.754 47.428-9.17 13.641-22.136 24.301-38.892 31.978-16.758 7.679-36.429 11.518-59.012 11.518H0Zm446.415-138.758c0-18.068-2.555-33.333-7.658-45.801-5.104-12.465-12.421-21.905-21.952-28.321-9.532-6.412-20.981-9.62-34.35-9.62-13.28 0-24.707 3.208-34.283 9.62-9.576 6.416-16.917 15.856-22.02 28.32-5.103 12.469-7.655 27.734-7.655 45.802 0 18.07 2.552 33.334 7.655 45.8 5.103 12.468 12.444 21.91 22.02 28.322 9.576 6.416 21.003 9.621 34.283 9.621 13.369 0 24.818-3.205 34.35-9.621 9.531-6.412 16.848-15.854 21.952-28.322 5.103-12.466 7.658-27.73 7.658-45.8Zm68.565 0c0 30.535-5.873 56.418-17.616 77.646-11.744 21.229-27.621 37.354-47.629 48.374-20.012 11.024-42.438 16.532-67.28 16.532-24.932 0-47.383-5.556-67.346-16.666-19.965-11.112-35.797-27.259-47.496-48.444-11.698-21.183-17.546-46.998-17.546-77.442 0-30.533 5.848-56.416 17.546-77.644 11.699-21.228 27.531-37.353 47.496-48.376C335.072 5.513 357.523 0 382.455 0c24.842 0 47.268 5.513 67.28 16.533 20.008 11.023 35.885 27.148 47.629 48.376 11.743 21.228 17.616 47.111 17.616 77.644Zm26.961 138.758v-52.576l7.588-.814c9.756-1.172 17.704-5.125 23.848-11.857 6.144-6.727 10.817-17.479 14.025-32.249 3.207-14.771 5.262-34.758 6.167-59.96l4.472-120.06h194.721v277.516h-64.908V56.643h-67.888l-4.336 91.873c-1.537 31.708-5.556 57.297-12.061 76.764-6.503 19.468-16.553 33.672-30.148 42.615-13.599 8.944-31.824 13.416-54.677 13.416h-16.803Zm343.361-179.68h61.79c22.674 0 42.367 3.658 59.078 10.974 16.72 7.318 29.66 17.616 38.83 30.896 9.16 13.28 13.75 28.91 13.75 46.884 0 17.979-4.59 33.788-13.75 47.43-9.17 13.641-22.11 24.301-38.83 31.978-16.711 7.679-36.404 11.518-59.078 11.518H843.431V3.796h66.94v224.396h36.721c9.756 0 17.999-1.693 24.731-5.081 6.729-3.387 11.832-7.995 15.311-13.822 3.476-5.826 5.172-12.306 5.082-19.445.09-10.299-3.75-18.903-11.518-25.813-7.77-6.911-18.971-10.367-33.606-10.367h-61.79v-52.033ZM1101.93 3.795h65.31v224.94h73.72V3.795h64.77v224.94h72.36V3.795H1443V281.31h-341.07V3.795Zm392.36 277.516V3.796h193.5v54.472h-126.42v56.912h116.53v54.609h-116.53v57.05h126.42v54.472h-193.5Zm259.48-34.761c5.37 0 9.6 4.584 9.16 9.939l-.06.774c-.77 8.88-2.34 17.548-4.68 26.012-2.35 8.462-4.84 16.071-7.48 22.827-1.49 3.804-2.8 7.127-3.94 9.972a9.163 9.163 0 0 1-8.53 5.76h-11.55c-6.03 0-10.43-5.695-8.89-11.525.35-1.331.72-2.732 1.1-4.207 1.77-6.756 3.43-14.381 4.98-22.875a164.825 164.825 0 0 0 2.6-25.866l.03-1.779a9.199 9.199 0 0 1 9.2-9.032h18.06Z" fill="#FF690F"/><path d="M426.154 377.301h24.093v116.648h-24.093V377.301Zm-69.431 0h23.979v37.592c0 4.48.779 8.078 2.336 10.793 1.557 2.716 3.976 4.669 7.263 5.868 3.284 1.195 7.508 1.793 12.672 1.793 1.822 0 3.968-.066 6.436-.2a163.71 163.71 0 0 0 7.661-.598c2.639-.264 5.136-.587 7.491-.968 2.353-.379 4.309-.816 5.865-1.31v19.48c-1.595.532-3.579.996-5.952 1.394-2.372.4-4.869.742-7.489 1.026-2.62.286-5.166.506-7.632.655-2.47.152-4.596.228-6.38.228-9.379 0-17.543-1.339-24.492-4.016-6.948-2.677-12.312-6.824-16.09-12.444-3.778-5.62-5.668-12.852-5.668-21.701v-37.592ZM474.682 493.95V377.302h78.601v20.333h-53.938v27.795h49.894v20.333h-49.894v27.854h54.166v20.333h-78.829Zm98.251-116.649h30.416l32.124 78.372h1.366l32.124-78.372h30.416v116.648h-23.921v-75.924h-.969l-30.187 75.355h-16.289l-30.19-75.64h-.968v76.209h-23.922V377.301Zm208.578 96.827h18.967c4.405 0 8.125-.805 11.164-2.419 3.037-1.614 5.345-3.761 6.921-6.438 1.575-2.675 2.363-5.611 2.363-8.799 0-4.633-1.756-8.552-5.268-11.761-3.514-3.21-8.572-4.815-15.18-4.815h-18.967v34.232Zm-24.663 19.821V377.301h77.406v20.334h-52.743v22.782h18.967c9.228 0 17.192 1.491 23.894 4.472 6.7 2.982 11.876 7.186 15.522 12.616 3.644 5.43 5.468 11.828 5.468 19.195 0 7.329-1.824 13.792-5.468 19.393-3.646 5.602-8.822 9.979-15.522 13.13-6.702 3.153-14.666 4.726-23.894 4.726h-43.63Zm104.459-116.648h24.607v73.362h.968l50.406-73.362h21.588v116.648h-24.661v-73.417h-.855l-50.693 73.417h-21.36V377.301Zm160.333 118.244c-8.5 0-16.07-1.472-22.693-4.415-6.628-2.943-11.849-7.005-15.665-12.188-3.816-5.184-5.78-11.173-5.895-17.971h24.833c.15 2.848 1.09 5.344 2.82 7.491 1.73 2.145 4.03 3.805 6.92 4.984 2.89 1.177 6.13 1.765 9.74 1.765 3.76 0 7.08-.664 9.97-1.993 2.88-1.329 5.14-3.171 6.78-5.527 1.63-2.352 2.44-5.068 2.44-8.144 0-3.113-.86-5.874-2.59-8.288-1.73-2.409-4.19-4.298-7.4-5.666-3.21-1.367-7.02-2.051-11.42-2.051h-10.88V425.43h10.88c3.72 0 7.01-.644 9.88-1.936 2.87-1.292 5.1-3.087 6.69-5.384 1.6-2.296 2.4-4.983 2.4-8.059 0-2.924-.7-5.497-2.08-7.718-1.39-2.222-3.33-3.959-5.81-5.21-2.49-1.254-5.39-1.881-8.69-1.881-3.34 0-6.4.599-9.17 1.795-2.77 1.196-4.99 2.896-6.66 5.097-1.67 2.203-2.57 4.784-2.68 7.747h-23.637c.113-6.722 2.029-12.644 5.752-17.771 3.72-5.127 8.743-9.144 15.065-12.048 6.32-2.904 13.47-4.357 21.44-4.357 8.05 0 15.1 1.464 21.13 4.386 6.04 2.926 10.74 6.863 14.1 11.819 3.36 4.955 5.02 10.508 4.99 16.661.03 6.531-1.99 11.979-6.07 16.346-4.08 4.368-9.39 7.14-15.92 8.317v.911c8.58 1.1 15.12 4.072 19.62 8.913 4.5 4.843 6.73 10.888 6.7 18.141.03 6.647-1.88 12.55-5.73 17.714-3.85 5.165-9.16 9.226-15.92 12.189-6.76 2.963-14.5 4.443-23.24 4.443Zm63.34-1.595V377.302h24.66v48.128h50.07v-48.128h24.6V493.95h-24.6v-48.187h-50.07v48.187h-24.66Zm119.67 0V377.302h78.6v20.333h-53.94v27.795h49.9v20.333h-49.9v27.854h54.17v20.333h-78.83Zm201.17-75.81h-24.95c-.45-3.228-1.38-6.104-2.79-8.629a21.984 21.984 0 0 0-5.41-6.466c-2.2-1.784-4.74-3.152-7.6-4.1-2.87-.949-5.97-1.425-9.31-1.425-6.04 0-11.3 1.491-15.78 4.472-4.48 2.981-7.96 7.309-10.43 12.987-2.46 5.676-3.7 12.558-3.7 20.645 0 8.318 1.25 15.305 3.73 20.961 2.49 5.66 5.97 9.931 10.45 12.816 4.48 2.887 9.67 4.328 15.55 4.328 3.31 0 6.37-.436 9.2-1.309 2.83-.874 5.35-2.155 7.55-3.844 2.2-1.69 4.03-3.749 5.5-6.181 1.46-2.43 2.47-5.202 3.04-8.315l24.95.115c-.64 5.353-2.25 10.508-4.81 15.462-2.56 4.956-6 9.379-10.31 13.272-4.31 3.892-9.44 6.967-15.38 9.227-5.94 2.258-12.65 3.389-20.13 3.389-10.41 0-19.7-2.355-27.88-7.064-8.19-4.707-14.64-11.522-19.37-20.446-4.73-8.923-7.09-19.727-7.09-32.411 0-12.719 2.39-23.54 7.17-32.464 4.79-8.924 11.28-15.729 19.49-20.421 8.2-4.688 17.42-7.034 27.68-7.034 6.76 0 13.03.951 18.82 2.85 5.79 1.897 10.93 4.66 15.41 8.286 4.48 3.627 8.13 8.06 10.96 13.299 2.83 5.241 4.64 11.241 5.44 18Z" fill="#005B98"/><path d="M1743.09 249.023c5.32 0 9.5 4.532 9.07 9.826l-.06.767a142.764 142.764 0 0 1-4.63 25.723c-2.33 8.365-4.79 15.89-7.4 22.572-1.47 3.76-2.77 7.046-3.89 9.86a9.072 9.072 0 0 1-8.44 5.696h-11.42c-5.96 0-10.31-5.631-8.79-11.398.34-1.314.71-2.701 1.09-4.158 1.75-6.682 3.39-14.222 4.92-22.622a163.55 163.55 0 0 0 2.57-25.576l.04-1.76c.08-4.958 4.13-8.93 9.09-8.93h17.85Z" fill="#FF7A08"/></svg>