<svg width="1763" height="496" viewBox="0 0 1763 496" fill="none" xmlns="http://www.w3.org/2000/svg">
<path d="M1639.8 187.916C1636.51 187.916 1633.84 190.587 1633.84 193.88C1633.84 197.172 1636.51 199.841 1639.8 199.841C1643.1 199.841 1645.77 197.172 1645.77 193.88C1645.77 190.587 1643.1 187.916 1639.8 187.916ZM1639.8 188.583C1642.72 188.583 1645.1 190.959 1645.1 193.88C1645.1 196.799 1642.72 199.175 1639.8 199.175C1636.88 199.175 1634.51 196.799 1634.51 193.88C1634.51 190.959 1636.88 188.583 1639.8 188.583" fill="#0072BF"/>
<path d="M1641.16 192.452C1641.16 192.303 1641.13 192.155 1641.09 192.014C1641.04 191.87 1640.96 191.743 1640.86 191.635C1640.76 191.526 1640.63 191.438 1640.46 191.374C1640.3 191.308 1640.11 191.275 1639.88 191.275H1638.15V193.654H1639.82C1640.28 193.654 1640.62 193.542 1640.83 193.319C1641.05 193.094 1641.16 192.806 1641.16 192.452ZM1640.8 194.066C1641.06 194.152 1641.25 194.276 1641.37 194.438C1641.48 194.602 1641.57 194.802 1641.64 195.036L1642.19 197.015C1642.2 197.047 1642.2 197.078 1642.19 197.108C1642.18 197.139 1642.15 197.154 1642.09 197.154H1641.57C1641.55 197.154 1641.52 197.151 1641.49 197.142C1641.46 197.131 1641.44 197.103 1641.43 197.052L1640.92 195.242C1640.87 195.048 1640.8 194.892 1640.71 194.77C1640.63 194.648 1640.53 194.552 1640.42 194.48C1640.31 194.41 1640.18 194.359 1640.05 194.331C1639.91 194.303 1639.76 194.291 1639.61 194.291H1638.14V197.034C1638.14 197.083 1638.13 197.115 1638.11 197.131C1638.09 197.147 1638.06 197.154 1638.01 197.154H1637.53C1637.48 197.154 1637.45 197.147 1637.43 197.131C1637.41 197.115 1637.4 197.083 1637.4 197.034V191.042C1637.4 190.898 1637.43 190.791 1637.5 190.714C1637.56 190.642 1637.67 190.603 1637.84 190.603H1639.96C1640.26 190.603 1640.53 190.647 1640.76 190.738C1641 190.83 1641.2 190.954 1641.37 191.116C1641.54 191.279 1641.67 191.47 1641.76 191.691C1641.85 191.911 1641.89 192.152 1641.89 192.415C1641.89 192.787 1641.8 193.12 1641.61 193.414C1641.43 193.704 1641.16 193.915 1640.8 194.036V194.066Z" fill="#0072BF"/>
<path d="M67.0747 228.192H103.661C113.417 228.192 121.66 226.499 128.391 223.111C135.119 219.724 140.224 215.116 143.703 209.289C147.18 203.463 148.92 196.983 148.92 189.844C148.92 179.545 145.035 170.941 137.267 164.031C129.496 157.12 118.296 153.664 103.661 153.664H67.0747V228.192ZM0 281.311V3.79589H189.572V58.2679H67.0747V101.631H103.661C126.244 101.631 145.915 105.289 162.673 112.607C179.429 119.923 192.395 130.221 201.565 143.501C210.732 156.781 215.319 172.412 215.319 190.387C215.319 208.364 210.732 224.173 201.565 237.815C192.395 251.456 179.429 262.116 162.673 269.793C145.915 277.472 126.244 281.311 103.661 281.311H0Z" fill="#FF690F"/>
<path d="M446.415 142.553C446.415 124.485 443.86 109.22 438.757 96.7519C433.653 84.2866 426.336 74.8466 416.805 68.4306C407.273 62.0186 395.824 58.8105 382.455 58.8105C369.175 58.8105 357.748 62.0186 348.172 68.4306C338.596 74.8466 331.255 84.2866 326.152 96.7519C321.049 109.22 318.497 124.485 318.497 142.553C318.497 160.623 321.049 175.887 326.152 188.353C331.255 200.821 338.596 210.263 348.172 216.675C357.748 223.091 369.175 226.296 382.455 226.296C395.824 226.296 407.273 223.091 416.805 216.675C426.336 210.263 433.653 200.821 438.757 188.353C443.86 175.887 446.415 160.623 446.415 142.553ZM514.98 142.553C514.98 173.088 509.107 198.971 497.364 220.199C485.62 241.428 469.743 257.553 449.735 268.573C429.723 279.597 407.297 285.105 382.455 285.105C357.523 285.105 335.072 279.549 315.109 268.439C295.144 257.327 279.312 241.18 267.613 219.995C255.915 198.812 250.067 172.997 250.067 142.553C250.067 112.02 255.915 86.1372 267.613 64.9092C279.312 43.6812 295.144 27.5559 315.109 16.5332C335.072 5.51321 357.523 -0.000130567 382.455 -0.000130567C407.297 -0.000130567 429.723 5.51321 449.735 16.5332C469.743 27.5559 485.62 43.6812 497.364 64.9092C509.107 86.1372 514.98 112.02 514.98 142.553Z" fill="#FF690F"/>
<path d="M541.941 281.311V228.735L549.529 227.921C559.285 226.749 567.233 222.796 573.377 216.064C579.521 209.337 584.194 198.585 587.402 183.815C590.609 169.044 592.664 149.057 593.569 123.855L598.041 3.79589H792.762V281.311H727.854V56.6426H659.966L655.63 148.516C654.093 180.224 650.074 205.813 643.569 225.28C637.066 244.748 627.016 258.952 613.421 267.895C599.822 276.839 581.597 281.311 558.744 281.311H541.941Z" fill="#FF690F"/>
<path d="M885.302 101.631H947.092C969.766 101.631 989.459 105.289 1006.17 112.605C1022.89 119.923 1035.83 130.221 1045 143.501C1054.16 156.781 1058.75 172.411 1058.75 190.385C1058.75 208.364 1054.16 224.173 1045 237.815C1035.83 251.456 1022.89 262.116 1006.17 269.793C989.459 277.472 969.766 281.311 947.092 281.311H843.431V3.79613H910.371V228.192H947.092C956.848 228.192 965.091 226.499 971.823 223.111C978.552 219.724 983.655 215.116 987.134 209.289C990.61 203.463 992.306 196.983 992.216 189.844C992.306 179.545 988.466 170.941 980.698 164.031C972.928 157.12 961.727 153.664 947.092 153.664H885.302V101.631Z" fill="#FF690F"/>
<path d="M1101.93 3.79541H1167.24V228.735H1240.96V3.79541H1305.73V228.735H1378.09V3.79541H1443V281.31H1101.93V3.79541Z" fill="#FF690F"/>
<path d="M1494.29 281.311V3.79589H1687.79V58.2679H1561.37V115.18H1677.9V169.789H1561.37V226.839H1687.79V281.311H1494.29Z" fill="#FF690F"/>
<path d="M1753.77 246.55C1759.14 246.55 1763.37 251.134 1762.93 256.489L1762.87 257.263C1762.1 266.143 1760.53 274.811 1758.19 283.275C1755.84 291.737 1753.35 299.346 1750.71 306.102C1749.22 309.906 1747.91 313.229 1746.77 316.074C1745.38 319.563 1742 321.834 1738.24 321.834H1726.69C1720.66 321.834 1716.26 316.139 1717.8 310.309C1718.15 308.978 1718.52 307.577 1718.9 306.102C1720.67 299.346 1722.33 291.721 1723.88 283.227C1725.42 274.733 1726.29 266.111 1726.48 257.361L1726.51 255.582C1726.6 250.569 1730.69 246.55 1735.71 246.55H1753.77Z" fill="#FF690F"/>
<path d="M426.154 377.301H450.247V493.949H426.154V377.301ZM356.723 377.301H380.702V414.893C380.702 419.373 381.481 422.971 383.038 425.686C384.595 428.402 387.014 430.355 390.301 431.554C393.585 432.749 397.809 433.347 402.973 433.347C404.795 433.347 406.941 433.281 409.409 433.147C411.877 433.015 414.43 432.815 417.07 432.549C419.709 432.285 422.206 431.962 424.561 431.581C426.914 431.202 428.87 430.765 430.426 430.271V449.751C428.831 450.283 426.847 450.747 424.474 451.145C422.102 451.545 419.605 451.887 416.985 452.171C414.365 452.457 411.819 452.677 409.353 452.826C406.883 452.978 404.757 453.054 402.973 453.054C393.594 453.054 385.43 451.715 378.481 449.038C371.533 446.361 366.169 442.214 362.391 436.594C358.613 430.974 356.723 423.742 356.723 414.893V377.301Z" fill="#005B98"/>
<path d="M474.682 493.95V377.302H553.283V397.635H499.345V425.43H549.239V445.763H499.345V473.617H553.511V493.95H474.682Z" fill="#005B98"/>
<path d="M572.933 377.301H603.349L635.473 455.673H636.839L668.963 377.301H699.379V493.949H675.458V418.025H674.489L644.302 493.38H628.013L597.823 417.74H596.855V493.949H572.933V377.301Z" fill="#005B98"/>
<path d="M781.511 474.128H800.478C804.883 474.128 808.603 473.323 811.642 471.709C814.679 470.095 816.987 467.948 818.563 465.271C820.138 462.596 820.926 459.66 820.926 456.472C820.926 451.839 819.17 447.92 815.658 444.711C812.144 441.501 807.086 439.896 800.478 439.896H781.511V474.128ZM756.848 493.949V377.301H834.254V397.635H781.511V420.417H800.478C809.706 420.417 817.67 421.908 824.372 424.889C831.072 427.871 836.248 432.075 839.894 437.505C843.538 442.935 845.362 449.333 845.362 456.7C845.362 464.029 843.538 470.492 839.894 476.093C836.248 481.695 831.072 486.072 824.372 489.223C817.67 492.376 809.706 493.949 800.478 493.949H756.848Z" fill="#005B98"/>
<path d="M861.307 377.301H885.914V450.663H886.882L937.288 377.301H958.876V493.949H934.215V420.532H933.36L882.667 493.949H861.307V377.301Z" fill="#005B98"/>
<path d="M1021.64 495.545C1013.14 495.545 1005.57 494.073 998.947 491.13C992.319 488.187 987.098 484.125 983.282 478.942C979.466 473.758 977.502 467.769 977.387 460.971H1002.22C1002.37 463.819 1003.31 466.315 1005.04 468.462C1006.77 470.607 1009.07 472.267 1011.96 473.446C1014.85 474.623 1018.09 475.211 1021.7 475.211C1025.46 475.211 1028.78 474.547 1031.67 473.218C1034.55 471.889 1036.81 470.047 1038.45 467.691C1040.08 465.339 1040.89 462.623 1040.89 459.547C1040.89 456.434 1040.03 453.673 1038.3 451.259C1036.57 448.85 1034.11 446.961 1030.9 445.593C1027.69 444.226 1023.88 443.542 1019.48 443.542H1008.6V425.43H1019.48C1023.2 425.43 1026.49 424.786 1029.36 423.494C1032.23 422.202 1034.46 420.407 1036.05 418.11C1037.65 415.814 1038.45 413.127 1038.45 410.051C1038.45 407.127 1037.75 404.554 1036.37 402.333C1034.98 400.111 1033.04 398.374 1030.56 397.123C1028.07 395.869 1025.17 395.242 1021.87 395.242C1018.53 395.242 1015.47 395.841 1012.7 397.037C1009.93 398.233 1007.71 399.933 1006.04 402.134C1004.37 404.337 1003.47 406.918 1003.36 409.881H979.723C979.836 403.159 981.752 397.237 985.475 392.11C989.195 386.983 994.218 382.966 1000.54 380.062C1006.86 377.158 1014.01 375.705 1021.98 375.705C1030.03 375.705 1037.08 377.169 1043.11 380.091C1049.15 383.017 1053.85 386.954 1057.21 391.91C1060.57 396.865 1062.23 402.418 1062.2 408.571C1062.23 415.102 1060.21 420.55 1056.13 424.917C1052.05 429.285 1046.74 432.057 1040.21 433.234V434.145C1048.79 435.245 1055.33 438.217 1059.83 443.058C1064.33 447.901 1066.56 453.946 1066.53 461.199C1066.56 467.846 1064.65 473.749 1060.8 478.913C1056.95 484.078 1051.64 488.139 1044.88 491.102C1038.12 494.065 1030.38 495.545 1021.64 495.545Z" fill="#005B98"/>
<path d="M1084.98 493.95V377.302H1109.64V425.43H1159.71V377.302H1184.31V493.95H1159.71V445.763H1109.64V493.95H1084.98Z" fill="#005B98"/>
<path d="M1204.65 493.95V377.302H1283.25V397.635H1229.31V425.43H1279.21V445.763H1229.31V473.617H1283.48V493.95H1204.65Z" fill="#005B98"/>
<path d="M1405.82 418.14H1380.87C1380.42 414.912 1379.49 412.036 1378.08 409.511C1376.68 406.985 1374.87 404.832 1372.67 403.045C1370.47 401.261 1367.93 399.893 1365.07 398.945C1362.2 397.996 1359.1 397.52 1355.76 397.52C1349.72 397.52 1344.46 399.011 1339.98 401.992C1335.5 404.973 1332.02 409.301 1329.55 414.979C1327.09 420.655 1325.85 427.537 1325.85 435.624C1325.85 443.942 1327.1 450.929 1329.58 456.585C1332.07 462.245 1335.55 466.516 1340.03 469.401C1344.51 472.288 1349.7 473.729 1355.58 473.729C1358.89 473.729 1361.95 473.293 1364.78 472.42C1367.61 471.546 1370.13 470.265 1372.33 468.576C1374.53 466.886 1376.36 464.827 1377.83 462.395C1379.29 459.965 1380.3 457.193 1380.87 454.08L1405.82 454.195C1405.18 459.548 1403.57 464.703 1401.01 469.657C1398.45 474.613 1395.01 479.036 1390.7 482.929C1386.39 486.821 1381.26 489.896 1375.32 492.156C1369.38 494.414 1362.67 495.545 1355.19 495.545C1344.78 495.545 1335.49 493.19 1327.31 488.481C1319.12 483.774 1312.67 476.959 1307.94 468.035C1303.21 459.112 1300.85 448.308 1300.85 435.624C1300.85 422.905 1303.24 412.084 1308.02 403.16C1312.81 394.236 1319.3 387.431 1327.51 382.739C1335.71 378.051 1344.93 375.705 1355.19 375.705C1361.95 375.705 1368.22 376.656 1374.01 378.555C1379.8 380.452 1384.94 383.215 1389.42 386.841C1393.9 390.468 1397.55 394.901 1400.38 400.14C1403.21 405.381 1405.02 411.381 1405.82 418.14Z" fill="#005B98"/>
<path d="M1743.09 249.023C1748.41 249.023 1752.59 253.555 1752.16 258.849L1752.1 259.616C1751.33 268.397 1749.79 276.969 1747.47 285.339C1745.14 293.704 1742.68 301.229 1740.07 307.911C1738.6 311.671 1737.3 314.957 1736.18 317.771C1734.8 321.221 1731.46 323.467 1727.74 323.467H1716.32C1710.36 323.467 1706.01 317.836 1707.53 312.069C1707.87 310.755 1708.24 309.368 1708.62 307.911C1710.37 301.229 1712.01 293.689 1713.54 285.289C1715.06 276.891 1715.92 268.365 1716.11 259.713L1716.15 257.953C1716.23 252.995 1720.28 249.023 1725.24 249.023H1743.09Z" fill="#FF7A08"/>
</svg>
